<?xml version="1.0" encoding="utf-8"?>
<!-- Generator: Adobe Illustrator 16.0.3, SVG Export Plug-In . SVG Version: 6.00 Build 0)  -->
<!DOCTYPE svg PUBLIC "-//W3C//DTD SVG 1.1//EN" "http://www.w3.org/Graphics/SVG/1.1/DTD/svg11.dtd">
<svg version="1.1" id="Layer_1" opacity="0.4" xmlns="http://www.w3.org/2000/svg" xmlns:xlink="http://www.w3.org/1999/xlink"
	 x="0px" y="0px" width="1920px" height="1080px" viewBox="0 0 1920 1080" style="enable-background:new 0 0 1920 1080;"
	 xml:space="preserve">
<style type="text/css">
<![CDATA[
	.st0{opacity:0.3;fill:#FFFFFF;}
	.st1{opacity:0.05;fill:#FFFFFF;}
	.st2{opacity:0.2;fill:#FFFFFF;}
	.st3{opacity:0.1;fill:#FFFFFF;}
]]>
</style>
<polygon class="st2" points="549,222 549,478 371.357,390.05 370.974,322.482 "/>
<polygon class="st3" points="786.227,483 553,483 553,214.985 699.249,330.081 "/>
<polygon class="st3" points="794.722,487.374 1045.083,588.464 928.267,877.77 795.539,754.157 "/>
<polygon class="st0" points="561.151,213.769 346.122,118.611 348.621,243.105 382.861,314.222 "/>
<polygon class="st2" points="563.208,485.598 795.022,484.285 796.539,752.157 650.344,637.956 "/>
<polygon class="st1" points="576,662 482.257,630.087 563.761,482.354 649.824,632.91 "/>
<polygon class="st2" points="706.208,327.598 938.021,326.285 1046.083,584.464 793.344,479.956 "/>
<polygon class="st3" points="337,666 451.344,686.956 439,798 368,756 "/>
<polygon class="st2" points="1046.083,593.476 1376.714,711.001 1253.353,882.266 1179.62,858.562 "/>
<polygon class="st3" points="1407.654,478.349 1373.714,711.001 1044.881,587.439 1243.874,545.601 "/>
<polygon class="st3" points="1410.654,478.349 1549.375,246.711 1817.046,407.011 1674.331,518.946 "/>
<polygon class="st0" points="1046.083,594.476 935.107,874.241 1103.1,880.29 1178.669,857.501 "/>
<polygon class="st2" points="1376.79,709.079 1411.471,479.872 1676.331,519.946 1540.825,646.646 "/>
<polygon class="st1" points="1557.016,727.131 1436.14,799.961 1377.646,711.34 1539.735,649.687 "/>
<polygon class="st2" points="1246.874,545.601 1281.554,313.394 1553.375,246.711 1410.909,480.167 "/>
<polygon class="st0" points="1559.016,723.131 1542.825,646.646 1674.304,523.712 1615.012,663.095 "/>
<polygon class="st3" points="939.021,326.285 1091.764,372.099 1247.874,545.601 1047.881,587.439 "/>
<polygon class="st2" points="1195.579,326.285 1211.398,400.597 1246.874,545.601 1090.764,371.885 "/>
<polygon class="st3" points="1246.874,313 1281.554,315.394 1246.874,542.601 1195.764,327.719 "/>
<polygon class="st2" points="343,239 310.123,258.104 248,226.605 343,115.611 "/>
<polygon class="st0" points="253.65,363.821 310.451,294.729 310.123,259.104 248,227.605 "/>
<polygon class="st2" points="318.365,594.349 555.242,486.531 452.636,688.349 339,668 "/>
<polygon class="st3" points="563,483 318.365,594.349 306.127,459.221 371.357,390.05 "/>
<polygon class="st3" points="453.358,684.078 480.257,628.087 574,660 444,798 "/>
<polygon class="st2" points="570.892,667.169 647.673,885.9 394.917,974.628 439,798 "/>
<polygon class="st0" points="1763,264.095 1549.107,251.241 1676.331,322.741 1817.046,407.011 "/>
<polygon class="st3" points="570.892,667.169 648.107,885.241 794.539,748.157 637.468,634.991 "/>
<polygon class="st3" points="436.568,801.492 394.172,975.75 229.839,933.598 297.5,858.574 "/>
<polygon class="st2" points="300.306,856.57 332.365,795.578 368.121,757.157 439,798 "/>
<polygon class="st3" points="1553.375,246.711 1280.098,312.893 1307.811,103.176 1456.044,156.675 "/>
<polygon class="st0" points="1092.085,373.189 1181.456,332.765 1113,237.604 1084.26,206.034 "/>
<polygon class="st3" points="883.595,153.11 942.108,326.099 708.028,325.033 797.541,198.891 "/>
<polygon class="st2" points="1357.567,1061.479 1254.626,880.269 1417.57,870.205 1438.709,926.127 "/>
<polygon class="st0" points="1358.607,1061.982 1539.166,1043.819 1490.024,961.219 1439.938,926.549 "/>
<polygon class="st2" points="1494.019,962.591 1508.794,937.229 1562.489,934.67 1541.062,1045.405 "/>
<polygon class="st0" points="1552.706,747.137 1483.393,885.241 1508.794,937.229 1562.489,934.67 "/>
<polygon class="st3" points="1254.716,885.991 1376.406,717.936 1436.14,803.961 1418.741,875.27 "/>
<polygon class="st1" points="190.448,653.015 265.531,619.652 295.92,763.131 167.349,706.16 "/>
<polygon class="st3" points="254.65,518.084 253.548,564.689 200.604,485.117 267.191,471.479 "/>
<polygon class="st3" points="253.878,567.73 267.852,619.802 192.769,653.163 197.527,488.006 "/>
<polygon class="st2" points="190.773,646.69 24.276,548.383 131.434,344.419 200.604,485.117 "/>
<polygon class="st3" points="190.773,646.69 24.369,549.063 9,723.118 167.349,706.16 "/>
<polygon class="st3" points="199.197,481.433 131.434,344.419 249,226.605 253.65,363.821 "/>
<polygon class="st2" points="231.073,408.549 267.542,425.066 266.486,470.795 200.604,485.117 "/>
<polygon class="st2" points="228.127,931.549 89,821.354 3.434,724.42 167.349,706.16 "/>
<polygon class="st3" points="304.878,836.73 299.933,858.192 229.25,931.549 167.349,707.5 "/>
<polygon class="st0" points="487,95.099 614.16,76.999 444.333,2.333 375.539,4.017 "/>
<polygon class="st2" points="623,153.11 562,215 345,115.611 485.062,91 "/>
<polygon class="st2" points="1091.085,369.189 1081.26,208.034 883,159 938.021,326.285 "/>
<polygon class="st1" points="1549.375,246.711 1459.624,155.941 1534,177 1763,264.095 "/>
<polygon class="st0" points="521.607,1041.982 881.553,1021.222 832.411,938.621 648.107,885.241 "/>
<polygon class="st2" points="648.107,885.241 796.539,752.157 929.267,873.77 835,934.67 "/>
<polygon class="st3" points="929.267,878.77 1103.1,885.29 881.553,1021.222 832.411,938.621 "/>
<polygon class="st0" points="893.204,1014.073 1159,963.611 1178.669,857.501 1094.107,889.241 "/>
<polygon class="st2" points="1180.456,330.765 1279.098,310.893 1302.874,113.26 1109.001,233.665 "/>
<polygon class="st3" points="133.434,345.419 2,270 2,1.985 86.134,146.439 "/>
<polygon class="st3" points="3.434,724.42 201.083,938.464 167.349,1075.314 9,1080 "/>
<polygon class="st3" points="774.821,71.843 855.334,10.665 920.667,63.332 883.881,157.439 "/>
<polygon class="st3" points="1795.227,991 1562,991 1562,722.985 1708.249,838.081 "/>
<polygon class="st0" points="1818.722,410.374 1883,575.177 1683.076,669 1676.331,522.946 "/>
<polygon class="st2" points="1903,667.169 1907,826.584 1797.227,986 1723.609,856.57 "/>
<polygon class="st3" points="492.827,93.117 630.673,73 772.175,67.521 632.501,153 "/>
<polygon class="st2" points="1763,264.095 1577.887,190.439 1452,160.605 1686.016,152.189 "/>
<polygon class="st2" points="510,1043.405 332.044,1078 154.088,1079 398,981.75 "/>
<polygon class="st3" points="885.722,1021.374 1174.456,1014.073 1126.857,1077 825.411,1051.537 "/>
<polygon class="st3" points="1526.561,100 1593,100 1686.016,152.346 1470.881,156.673 "/>
<polygon class="st2" points="1522.166,104 1306.098,104 1383.125,5.054 1492,11.081 "/>
<polygon class="st0" points="1763,260.095 1890.098,251.893 1907,44.716 1691.26,147.034 "/>
<polygon class="st2" points="1883,575.177 1817.046,427.8 1887.804,259.317 1907,495.555 "/>
<polygon class="st3" points="1903,667.169 1724.14,856.961 1683.076,669 1883,587.439 "/>
<polygon class="st2" points="132.207,339.037 84.134,145.439 142.631,100 190.773,135.113 "/>
<polygon class="st2" points="1895,1061.982 1727.217,1042.887 1559.434,994.42 1793.038,1003 "/>
<polygon class="st3" points="270.5,424 256.434,363.419 309.451,298.5 294.5,378 "/>
<polygon class="st2" points="293.027,384 301.5,412.5 306.127,459.221 271.604,427.117 "/>
<polygon class="st0" points="306.127,455.374 303.027,413 336.402,384 369.777,392.579 "/>
<polygon class="st2" points="357,334 370,326.099 370,391.479 340.614,381.5 "/>
<polygon class="st2" points="318.365,361.25 295.92,384 306.127,306 349,263.611 "/>
<polygon class="st3" points="336.402,384 319.434,361.419 349,268 354.229,334.442 "/>
<polygon class="st2" points="270.722,471.479 288.866,528.5 253.548,564.689 256.434,515 "/>
<polygon class="st3" points="291.7,527.589 266.486,470.795 270.5,424 303.027,459.221 "/>
<polygon class="st0" points="190.773,135.113 144,99.929 186.333,3 323.604,3 "/>
<polygon class="st2" points="340.667,115.611 271.134,57.439 321.604,3 375.539,0.017 "/>
<polygon class="st2" points="245.808,201.621 255.475,277.288 190.773,135.113 268.492,57.814 "/>
<polygon class="st0" points="699.667,326.285 796.97,196.688 623,156.333 564.861,216.223 "/>
<polygon class="st0" points="1079.26,201.998 1014.001,104.176 920.902,67.521 885.824,159.698 "/>
<polygon class="st2" points="1082.26,208.034 1130.857,126.998 1203.938,5.665 1014.001,104.665 "/>
<polygon class="st3" points="1436.14,799.961 1553.375,737.383 1439.938,926.549 1413.411,874.621 "/>
<polygon class="st2" points="340.667,115.611 251.123,171.104 189,139.605 321.604,3 "/>
<polygon class="st3" points="648.107,886.241 509,1045.405 394.839,983.598 484,944.356 "/>
<polygon class="st2" points="77.813,1026.375 2.276,1077.383 2.434,813.971 202.083,932.464 "/>
<polygon class="st2" points="339,668 271.604,615 289.159,533.882 314.256,595.231 "/>
<polygon class="st2" points="389.797,974.628 322.46,847.215 368,756 439,798 "/>
<g>
</g>
<g>
</g>
<g>
</g>
<g>
</g>
<g>
</g>
<g>
</g>
<g>
</g>
<g>
</g>
<g>
</g>
<g>
</g>
<g>
</g>
<g>
</g>
<g>
</g>
<g>
</g>
<g>
</g>
</svg>
