<?xml version="1.0" encoding="utf-8"?>
<!-- Generator: Adobe Illustrator 16.0.3, SVG Export Plug-In . SVG Version: 6.00 Build 0)  -->
<!DOCTYPE svg PUBLIC "-//W3C//DTD SVG 1.1//EN" "http://www.w3.org/Graphics/SVG/1.1/DTD/svg11.dtd">
<svg version="1.1" id="Layer_1" xmlns="http://www.w3.org/2000/svg" xmlns:xlink="http://www.w3.org/1999/xlink" x="0px" y="0px"
	 width="1920px" height="1080px" viewBox="0 0 1920 1080" style="enable-background:new 0 0 1920 1080;" xml:space="preserve">
<style type="text/css">
<![CDATA[
	.st0{opacity:0.4;fill:url(#SVGID_24_);}
	.st1{opacity:0.1;fill:url(#SVGID_3_);}
	.st2{opacity:0.1;fill:url(#SVGID_4_);}
	.st3{opacity:0.1;fill:url(#SVGID_5_);}
	.st4{opacity:0.1;fill:url(#SVGID_6_);}
	.st5{opacity:0.1;fill:url(#SVGID_7_);}
	.st6{opacity:0.1;fill:url(#SVGID_8_);}
	.st7{opacity:0.8;fill:url(#SVGID_29_);}
	.st8{opacity:0.7;fill:url(#SVGID_27_);}
	.st9{opacity:0.2;fill:url(#SVGID_31_);}
	.st10{opacity:0.2;fill:url(#SVGID_32_);}
	.st11{opacity:0.2;fill:url(#SVGID_1_);}
	.st12{opacity:0.2;fill:url(#SVGID_2_);}
	.st13{opacity:0.6;fill:url(#SVGID_22_);}
	.st14{fill:url(#SVGID_11_);}
	.st15{fill:url(#SVGID_12_);}
	.st16{fill:url(#SVGID_13_);}
	.st17{fill:url(#SVGID_14_);}
	.st18{fill:url(#SVGID_15_);}
	.st19{fill:url(#SVGID_16_);}
	.st20{fill:url(#SVGID_18_);}
	.st21{fill:url(#SVGID_19_);}
	.st22{fill:url(#SVGID_20_);}
	.st23{fill:url(#SVGID_21_);}
	.st24{fill:url(#SVGID_23_);}
	.st25{fill:url(#SVGID_25_);}
	.st26{fill:url(#SVGID_26_);}
	.st27{fill:url(#SVGID_28_);}
	.st28{fill:url(#SVGID_30_);}
	.st29{opacity:0.5;fill:url(#SVGID_10_);}
	.st30{opacity:0.5;fill:url(#SVGID_17_);}
	.st31{opacity:0.5;fill:url(#SVGID_9_);}
]]>
</style>
<linearGradient id="SVGID_1_" gradientUnits="userSpaceOnUse" x1="1422.6934" y1="549.873" x2="1537.9261" y2="204.2939">
	<stop  offset="0" style="stop-color:#FFFFFF;stop-opacity:0"/>
	<stop  offset="1" style="stop-color:#000000"/>
</linearGradient>
<polyline class="st11" points="1406,279 1406,549 1530,549 1530,190 "/>
<linearGradient id="SVGID_2_" gradientUnits="userSpaceOnUse" x1="1512.6934" y1="417.8735" x2="1627.9261" y2="72.2944">
	<stop  offset="0" style="stop-color:#FFFFFF;stop-opacity:0"/>
	<stop  offset="1" style="stop-color:#000000"/>
</linearGradient>
<polyline class="st12" points="1496,147 1496,417 1620,417 1620,58 "/>
<linearGradient id="SVGID_3_" gradientUnits="userSpaceOnUse" x1="464.8799" y1="347.3257" x2="554.2077" y2="79.4347">
	<stop  offset="0" style="stop-color:#FFFFFF;stop-opacity:0"/>
	<stop  offset="1" style="stop-color:#000000"/>
</linearGradient>
<polyline class="st1" points="435,161 435,341 559,341 559,72 "/>
<linearGradient id="SVGID_4_" gradientUnits="userSpaceOnUse" x1="382.8809" y1="358.3262" x2="472.2087" y2="90.4352">
	<stop  offset="0" style="stop-color:#FFFFFF;stop-opacity:0"/>
	<stop  offset="1" style="stop-color:#000000"/>
</linearGradient>
<polyline class="st2" points="353,172 353,352 477,352 477,83 "/>
<linearGradient id="SVGID_5_" gradientUnits="userSpaceOnUse" x1="864.2925" y1="816.0068" x2="1111.928" y2="73.3568">
	<stop  offset="0" style="stop-color:#FFFFFF;stop-opacity:0"/>
	<stop  offset="1" style="stop-color:#000000"/>
</linearGradient>
<polyline class="st3" points="915,113 915,843 1039,843 1039,24 "/>
<linearGradient id="SVGID_6_" gradientUnits="userSpaceOnUse" x1="790.2715" y1="834.0938" x2="994.7322" y2="220.9235">
	<stop  offset="0" style="stop-color:#FFFFFF;stop-opacity:0"/>
	<stop  offset="1" style="stop-color:#000000"/>
</linearGradient>
<polyline class="st4" points="819,272 819,852 943,852 943,183 "/>
<linearGradient id="SVGID_7_" gradientUnits="userSpaceOnUse" x1="81.2925" y1="809.0068" x2="328.928" y2="66.3568">
	<stop  offset="0" style="stop-color:#FFFFFF;stop-opacity:0"/>
	<stop  offset="1" style="stop-color:#000000"/>
</linearGradient>
<polyline class="st5" points="132,106 132,836 256,836 256,17 "/>
<linearGradient id="SVGID_8_" gradientUnits="userSpaceOnUse" x1="9.2715" y1="818.0938" x2="213.7322" y2="204.9235">
	<stop  offset="0" style="stop-color:#FFFFFF;stop-opacity:0"/>
	<stop  offset="1" style="stop-color:#000000"/>
</linearGradient>
<polyline class="st6" points="38,256 38,836 162,836 162,167 "/>
<linearGradient id="SVGID_9_" gradientUnits="userSpaceOnUse" x1="458.2925" y1="851.0068" x2="705.928" y2="108.3568">
	<stop  offset="0" style="stop-color:#FFFFFF;stop-opacity:0"/>
	<stop  offset="1" style="stop-color:#000000"/>
</linearGradient>
<polyline class="st31" points="509,148 509,878 633,878 633,59 "/>
<linearGradient id="SVGID_10_" gradientUnits="userSpaceOnUse" x1="386.2715" y1="860.0938" x2="590.7322" y2="246.9235">
	<stop  offset="0" style="stop-color:#FFFFFF;stop-opacity:0"/>
	<stop  offset="1" style="stop-color:#000000"/>
</linearGradient>
<polyline class="st29" points="415,298 415,878 539,878 539,209 "/>
<linearGradient id="SVGID_11_" gradientUnits="userSpaceOnUse" x1="282.9922" y1="1054.9395" x2="464.4263" y2="510.8251">
	<stop  offset="0" style="stop-color:#FFFFFF;stop-opacity:0"/>
	<stop  offset="1" style="stop-color:#000000"/>
</linearGradient>
<polyline class="st14" points="300,568 300,1068 424,1068 424,479 "/>
<linearGradient id="SVGID_12_" gradientUnits="userSpaceOnUse" x1="153.2925" y1="1041.0068" x2="400.9279" y2="298.3572">
	<stop  offset="0" style="stop-color:#FFFFFF;stop-opacity:0"/>
	<stop  offset="1" style="stop-color:#000000"/>
</linearGradient>
<polyline class="st15" points="204,338 204,1068 328,1068 328,249 "/>
<linearGradient id="SVGID_13_" gradientUnits="userSpaceOnUse" x1="46.8804" y1="1074.3262" x2="136.2084" y2="806.4347">
	<stop  offset="0" style="stop-color:#FFFFFF;stop-opacity:0"/>
	<stop  offset="1" style="stop-color:#000000"/>
</linearGradient>
<polyline class="st16" points="17,888 17,1068 141,1068 141,799 "/>
<linearGradient id="SVGID_14_" gradientUnits="userSpaceOnUse" x1="81.2715" y1="1050.0938" x2="285.7321" y2="436.9236">
	<stop  offset="0" style="stop-color:#FFFFFF;stop-opacity:0"/>
	<stop  offset="1" style="stop-color:#000000"/>
</linearGradient>
<polyline class="st17" points="110,488 110,1068 234,1068 234,399 "/>
<linearGradient id="SVGID_15_" gradientUnits="userSpaceOnUse" x1="406.6934" y1="1068.873" x2="521.9262" y2="723.2939">
	<stop  offset="0" style="stop-color:#FFFFFF;stop-opacity:0"/>
	<stop  offset="1" style="stop-color:#000000"/>
</linearGradient>
<polyline class="st18" points="390,798 390,1068 514,1068 514,709 "/>
<linearGradient id="SVGID_16_" gradientUnits="userSpaceOnUse" x1="745.9937" y1="1054.9404" x2="927.4277" y2="510.826">
	<stop  offset="0" style="stop-color:#FFFFFF;stop-opacity:0"/>
	<stop  offset="1" style="stop-color:#000000"/>
</linearGradient>
<polyline class="st19" points="763,568 763,1068 887,1068 887,479 "/>
<linearGradient id="SVGID_17_" gradientUnits="userSpaceOnUse" x1="616.293" y1="1041.0068" x2="863.9283" y2="298.3572">
	<stop  offset="0" style="stop-color:#FFFFFF;stop-opacity:0"/>
	<stop  offset="1" style="stop-color:#000000"/>
</linearGradient>
<polyline class="st30" points="667,338 667,1068 791,1068 791,249 "/>
<linearGradient id="SVGID_18_" gradientUnits="userSpaceOnUse" x1="509.8799" y1="1074.3262" x2="599.2079" y2="806.4347">
	<stop  offset="0" style="stop-color:#FFFFFF;stop-opacity:0"/>
	<stop  offset="1" style="stop-color:#000000"/>
</linearGradient>
<polyline class="st20" points="480,888 480,1068 604,1068 604,799 "/>
<linearGradient id="SVGID_19_" gradientUnits="userSpaceOnUse" x1="544.271" y1="1050.0938" x2="748.7317" y2="436.9236">
	<stop  offset="0" style="stop-color:#FFFFFF;stop-opacity:0"/>
	<stop  offset="1" style="stop-color:#000000"/>
</linearGradient>
<polyline class="st21" points="573,488 573,1068 697,1068 697,399 "/>
<linearGradient id="SVGID_20_" gradientUnits="userSpaceOnUse" x1="869.6938" y1="1068.874" x2="984.9267" y2="723.2949">
	<stop  offset="0" style="stop-color:#FFFFFF;stop-opacity:0"/>
	<stop  offset="1" style="stop-color:#000000"/>
</linearGradient>
<polyline class="st22" points="853,798 853,1068 977,1068 977,709 "/>
<linearGradient id="SVGID_21_" gradientUnits="userSpaceOnUse" x1="1207.9932" y1="845.9404" x2="1389.4272" y2="301.826">
	<stop  offset="0" style="stop-color:#FFFFFF;stop-opacity:0"/>
	<stop  offset="1" style="stop-color:#000000"/>
</linearGradient>
<polyline class="st23" points="1225,359 1225,859 1349,859 1349,270 "/>
<linearGradient id="SVGID_22_" gradientUnits="userSpaceOnUse" x1="1078.293" y1="832.0068" x2="1325.9285" y2="89.3568">
	<stop  offset="0" style="stop-color:#FFFFFF;stop-opacity:0"/>
	<stop  offset="1" style="stop-color:#000000"/>
</linearGradient>
<polyline class="st13" points="1129,129 1129,859 1253,859 1253,40 "/>
<linearGradient id="SVGID_23_" gradientUnits="userSpaceOnUse" x1="971.8809" y1="865.3262" x2="1061.2089" y2="597.4347">
	<stop  offset="0" style="stop-color:#FFFFFF;stop-opacity:0"/>
	<stop  offset="1" style="stop-color:#000000"/>
</linearGradient>
<polyline class="st24" points="942,679 942,859 1066,859 1066,590 "/>
<linearGradient id="SVGID_24_" gradientUnits="userSpaceOnUse" x1="1006.2715" y1="841.0938" x2="1210.7322" y2="227.9235">
	<stop  offset="0" style="stop-color:#FFFFFF;stop-opacity:0"/>
	<stop  offset="1" style="stop-color:#000000"/>
</linearGradient>
<polyline class="st0" points="1035,279 1035,859 1159,859 1159,190 "/>
<linearGradient id="SVGID_25_" gradientUnits="userSpaceOnUse" x1="1331.6934" y1="859.873" x2="1446.9261" y2="514.2939">
	<stop  offset="0" style="stop-color:#FFFFFF;stop-opacity:0"/>
	<stop  offset="1" style="stop-color:#000000"/>
</linearGradient>
<polyline class="st25" points="1315,589 1315,859 1439,859 1439,500 "/>
<linearGradient id="SVGID_26_" gradientUnits="userSpaceOnUse" x1="1661.9941" y1="1043.9404" x2="1843.4282" y2="499.826">
	<stop  offset="0" style="stop-color:#FFFFFF;stop-opacity:0"/>
	<stop  offset="1" style="stop-color:#000000"/>
</linearGradient>
<polyline class="st26" points="1679,557 1679,1057 1803,1057 1803,468 "/>
<linearGradient id="SVGID_27_" gradientUnits="userSpaceOnUse" x1="1532.293" y1="1030.0068" x2="1779.9285" y2="287.3568">
	<stop  offset="0" style="stop-color:#FFFFFF;stop-opacity:0"/>
	<stop  offset="1" style="stop-color:#000000"/>
</linearGradient>
<polyline class="st8" points="1583,327 1583,1057 1707,1057 1707,238 "/>
<linearGradient id="SVGID_28_" gradientUnits="userSpaceOnUse" x1="1425.8799" y1="1065.3262" x2="1515.2079" y2="797.4347">
	<stop  offset="0" style="stop-color:#FFFFFF;stop-opacity:0"/>
	<stop  offset="1" style="stop-color:#000000"/>
</linearGradient>
<polyline class="st27" points="1396,879 1396,1059 1520,1059 1520,790 "/>
<linearGradient id="SVGID_29_" gradientUnits="userSpaceOnUse" x1="1460.2715" y1="1041.0938" x2="1664.7322" y2="427.9236">
	<stop  offset="0" style="stop-color:#FFFFFF;stop-opacity:0"/>
	<stop  offset="1" style="stop-color:#000000"/>
</linearGradient>
<polyline class="st7" points="1489,479 1489,1059 1613,1059 1613,390 "/>
<linearGradient id="SVGID_30_" gradientUnits="userSpaceOnUse" x1="1785.6943" y1="1057.874" x2="1900.9271" y2="712.2949">
	<stop  offset="0" style="stop-color:#FFFFFF;stop-opacity:0"/>
	<stop  offset="1" style="stop-color:#000000"/>
</linearGradient>
<polyline class="st28" points="1769,787 1769,1057 1893,1057 1893,698 "/>
<linearGradient id="SVGID_31_" gradientUnits="userSpaceOnUse" x1="1150.8799" y1="1065.3252" x2="1240.2078" y2="797.4342">
	<stop  offset="0" style="stop-color:#FFFFFF;stop-opacity:0"/>
	<stop  offset="1" style="stop-color:#000000"/>
</linearGradient>
<polyline class="st9" points="1121,879 1121,1059 1245,1059 1245,790 "/>
<linearGradient id="SVGID_32_" gradientUnits="userSpaceOnUse" x1="1051.6934" y1="1076.874" x2="1166.9261" y2="731.2949">
	<stop  offset="0" style="stop-color:#FFFFFF;stop-opacity:0"/>
	<stop  offset="1" style="stop-color:#000000"/>
</linearGradient>
<polyline class="st10" points="1035,806 1035,1076 1159,1076 1159,717 "/>
<g>
</g>
<g>
</g>
<g>
</g>
<g>
</g>
<g>
</g>
<g>
</g>
<g>
</g>
<g>
</g>
<g>
</g>
<g>
</g>
<g>
</g>
<g>
</g>
<g>
</g>
<g>
</g>
<g>
</g>
</svg>
