<?xml version="1.0" encoding="utf-8"?>
<!-- Generator: Adobe Illustrator 16.0.3, SVG Export Plug-In . SVG Version: 6.00 Build 0)  -->
<!DOCTYPE svg PUBLIC "-//W3C//DTD SVG 1.1//EN" "http://www.w3.org/Graphics/SVG/1.1/DTD/svg11.dtd">
<svg version="1.1" id="Layer_1" xmlns="http://www.w3.org/2000/svg" xmlns:xlink="http://www.w3.org/1999/xlink" x="0px" y="0px"
	 width="1920px" height="1080px" viewBox="0 0 1920 1080" style="enable-background:new 0 0 1920 1080;" xml:space="preserve">
<style type="text/css">
<![CDATA[
	.st0{opacity:0.2;fill:url(#SVGID_5_);enable-background:new    ;}
	.st1{opacity:0.3;fill:url(#SVGID_7_);enable-background:new    ;}
	.st2{opacity:0.5;fill:url(#SVGID_11_);enable-background:new    ;}
	.st3{opacity:0.6;fill:url(#SVGID_23_);enable-background:new    ;}
	.st4{opacity:0.7;fill:url(#SVGID_28_);enable-background:new    ;}
	.st5{opacity:0.8;fill:url(#SVGID_30_);enable-background:new    ;}
	.st6{opacity:0.1;fill:url(#SVGID_25_);enable-background:new    ;}
	.st7{opacity:0.2;fill:url(#SVGID_32_);enable-background:new    ;}
	.st8{opacity:0.5;fill:url(#SVGID_18_);enable-background:new    ;}
	.st9{fill:url(#SVGID_1_);}
	.st10{opacity:0.3;fill:url(#SVGID_6_);enable-background:new    ;}
	.st11{opacity:0.5;fill:url(#SVGID_10_);enable-background:new    ;}
	.st12{opacity:0.1;fill:url(#SVGID_9_);enable-background:new    ;}
	.st13{opacity:0.1;fill:url(#SVGID_4_);enable-background:new    ;}
	.st14{opacity:0.3;fill:url(#SVGID_8_);enable-background:new    ;}
	.st15{opacity:0.3;fill:url(#SVGID_3_);enable-background:new    ;}
	.st16{fill:url(#SVGID_12_);}
	.st17{fill:url(#SVGID_13_);}
	.st18{fill:url(#SVGID_14_);}
	.st19{fill:url(#SVGID_15_);}
	.st20{fill:url(#SVGID_16_);}
	.st21{fill:url(#SVGID_17_);}
	.st22{fill:url(#SVGID_19_);}
	.st23{fill:url(#SVGID_20_);}
	.st24{fill:url(#SVGID_21_);}
	.st25{fill:url(#SVGID_22_);}
	.st26{fill:url(#SVGID_24_);}
	.st27{fill:url(#SVGID_26_);}
	.st28{fill:url(#SVGID_27_);}
	.st29{fill:url(#SVGID_29_);}
	.st30{fill:url(#SVGID_31_);}
	.st31{opacity:0.4;fill:url(#SVGID_2_);enable-background:new    ;}
	.st32{opacity:0.2;fill:url(#SVGID_33_);enable-background:new    ;}
]]>
</style>
<g id="Layer_2">
	
		<linearGradient id="SVGID_1_" gradientUnits="userSpaceOnUse" x1="400.1162" y1="1317.9951" x2="393.2757" y2="291.9271" gradientTransform="matrix(1 0 0 -1 564 1315)">
		<stop  offset="0" style="stop-color:#BFF6FF"/>
		<stop  offset="0.9803" style="stop-color:#94B0FF"/>
	</linearGradient>
	<rect x="1" y="-0.5" class="st9" width="1919" height="1080"/>
</g>
<g id="Layer_1_1_">
	
		<linearGradient id="SVGID_2_" gradientUnits="userSpaceOnUse" x1="858.6929" y1="765.126" x2="973.9258" y2="1110.7052" gradientTransform="matrix(1 0 0 -1 564 1315)">
		<stop  offset="0.0049" style="stop-color:#FFFFFF;stop-opacity:0"/>
		<stop  offset="1" style="stop-color:#FFFFFF;stop-opacity:0.2"/>
	</linearGradient>
	<polyline class="st31" points="1406,279 1406,549 1530,549 1530,190 	"/>
	
		<linearGradient id="SVGID_3_" gradientUnits="userSpaceOnUse" x1="941.6934" y1="897.126" x2="1056.9263" y2="1242.7052" gradientTransform="matrix(1 0 0 -1 564 1315)">
		<stop  offset="0.0049" style="stop-color:#000000;stop-opacity:0"/>
		<stop  offset="1" style="stop-color:#000000;stop-opacity:0.2"/>
	</linearGradient>
	<polyline class="st15" points="1489,147 1489,417 1613,417 1613,58 	"/>
	
		<linearGradient id="SVGID_4_" gradientUnits="userSpaceOnUse" x1="292.2266" y1="631.2686" x2="488.9159" y2="1221.1324" gradientTransform="matrix(1 0 0 -1 564 1315)">
		<stop  offset="0.0049" style="stop-color:#000000;stop-opacity:0"/>
		<stop  offset="1" style="stop-color:#000000;stop-opacity:0.2"/>
	</linearGradient>
	<polyline class="st13" points="881,147 881,700 1005,700 1005,58 	"/>
	
		<linearGradient id="SVGID_5_" gradientUnits="userSpaceOnUse" x1="-181.1191" y1="956.6748" x2="-91.791" y2="1224.5664" gradientTransform="matrix(1 0 0 -1 564 1315)">
		<stop  offset="0.0049" style="stop-color:#000000;stop-opacity:0"/>
		<stop  offset="1" style="stop-color:#000000;stop-opacity:0.2"/>
	</linearGradient>
	<polyline class="st0" points="353,172 353,352 477,352 477,83 	"/>
	
		<linearGradient id="SVGID_6_" gradientUnits="userSpaceOnUse" x1="721.2925" y1="395.9941" x2="968.928" y2="1138.6436" gradientTransform="matrix(1 0 0 -1 564 1315)">
		<stop  offset="0.0049" style="stop-color:#FFFFFF;stop-opacity:0"/>
		<stop  offset="1" style="stop-color:#FFFFFF;stop-opacity:0.2"/>
	</linearGradient>
	<polyline class="st10" points="1336,216 1336,946 1460,946 1460,127 	"/>
	
		<linearGradient id="SVGID_7_" gradientUnits="userSpaceOnUse" x1="226.271" y1="480.9072" x2="430.732" y2="1094.0778" gradientTransform="matrix(1 0 0 -1 564 1315)">
		<stop  offset="0.0049" style="stop-color:#FFFFFF;stop-opacity:0"/>
		<stop  offset="1" style="stop-color:#FFFFFF;stop-opacity:0.2"/>
	</linearGradient>
	<polyline class="st1" points="819,272 819,852 943,852 943,183 	"/>
	
		<linearGradient id="SVGID_8_" gradientUnits="userSpaceOnUse" x1="-488.708" y1="482.9927" x2="-241.0719" y2="1225.6438" gradientTransform="matrix(1 0 0 -1 564 1315)">
		<stop  offset="0.0049" style="stop-color:#FFFFFF;stop-opacity:0"/>
		<stop  offset="1" style="stop-color:#FFFFFF;stop-opacity:0.2"/>
	</linearGradient>
	<polyline class="st14" points="126,129 126,859 250,859 250,40 	"/>
	
		<linearGradient id="SVGID_9_" gradientUnits="userSpaceOnUse" x1="-554.729" y1="496.9063" x2="-350.2681" y2="1110.0768" gradientTransform="matrix(1 0 0 -1 564 1315)">
		<stop  offset="0.0049" style="stop-color:#000000;stop-opacity:0"/>
		<stop  offset="1" style="stop-color:#000000;stop-opacity:0.2"/>
	</linearGradient>
	<polyline class="st12" points="38,256 38,836 162,836 162,167 	"/>
	
		<linearGradient id="SVGID_10_" gradientUnits="userSpaceOnUse" x1="-36.7109" y1="430.9941" x2="210.9244" y2="1173.6431" gradientTransform="matrix(1 0 0 -1 564 1315)">
		<stop  offset="0.0049" style="stop-color:#FFFFFF;stop-opacity:0"/>
		<stop  offset="1" style="stop-color:#FFFFFF;stop-opacity:0.2"/>
	</linearGradient>
	<polyline class="st11" points="577.997,181 577.997,911 701.997,911 701.997,92 	"/>
	
		<linearGradient id="SVGID_11_" gradientUnits="userSpaceOnUse" x1="-177.729" y1="454.9058" x2="26.7319" y2="1068.0763" gradientTransform="matrix(1 0 0 -1 564 1315)">
		<stop  offset="0.0049" style="stop-color:#FFFFFF;stop-opacity:0"/>
		<stop  offset="1" style="stop-color:#FFFFFF;stop-opacity:0.2"/>
	</linearGradient>
	<polyline class="st2" points="415,298 415,878 539,878 539,209 	"/>
	
		<linearGradient id="SVGID_12_" gradientUnits="userSpaceOnUse" x1="-285.0073" y1="257.0596" x2="-103.573" y2="801.1741" gradientTransform="matrix(1 0 0 -1 564 1315)">
		<stop  offset="0.0049" style="stop-color:#FFFFFF;stop-opacity:0"/>
		<stop  offset="1" style="stop-color:#FFFFFF;stop-opacity:0.2"/>
	</linearGradient>
	<polyline class="st16" points="296,571 296,1071 420,1071 420,482 	"/>
	
		<linearGradient id="SVGID_13_" gradientUnits="userSpaceOnUse" x1="-414.708" y1="270.9932" x2="-167.0723" y2="1013.643" gradientTransform="matrix(1 0 0 -1 564 1315)">
		<stop  offset="0.0049" style="stop-color:#FFFFFF;stop-opacity:0"/>
		<stop  offset="1" style="stop-color:#FFFFFF;stop-opacity:0.2"/>
	</linearGradient>
	<polyline class="st17" points="200,341 200,1071 324,1071 324,252 	"/>
	
		<linearGradient id="SVGID_14_" gradientUnits="userSpaceOnUse" x1="-521.1196" y1="237.6743" x2="-431.7915" y2="505.5659" gradientTransform="matrix(1 0 0 -1 564 1315)">
		<stop  offset="0.0049" style="stop-color:#FFFFFF;stop-opacity:0"/>
		<stop  offset="1" style="stop-color:#FFFFFF;stop-opacity:0.2"/>
	</linearGradient>
	<polyline class="st18" points="13,891 13,1071 137,1071 137,802 	"/>
	
		<linearGradient id="SVGID_15_" gradientUnits="userSpaceOnUse" x1="-486.7295" y1="261.9058" x2="-282.2683" y2="875.077" gradientTransform="matrix(1 0 0 -1 564 1315)">
		<stop  offset="0.0049" style="stop-color:#FFFFFF;stop-opacity:0"/>
		<stop  offset="1" style="stop-color:#FFFFFF;stop-opacity:0.2"/>
	</linearGradient>
	<polyline class="st19" points="106,491 106,1071 230,1071 230,402 	"/>
	
		<linearGradient id="SVGID_16_" gradientUnits="userSpaceOnUse" x1="-159.3066" y1="243.1265" x2="-44.0738" y2="588.7057" gradientTransform="matrix(1 0 0 -1 564 1315)">
		<stop  offset="0.0049" style="stop-color:#FFFFFF;stop-opacity:0"/>
		<stop  offset="1" style="stop-color:#FFFFFF;stop-opacity:0.2"/>
	</linearGradient>
	<polyline class="st20" points="388,801 388,1071 512,1071 512,712 	"/>
	
		<linearGradient id="SVGID_17_" gradientUnits="userSpaceOnUse" x1="182.9927" y1="257.0601" x2="364.427" y2="801.1746" gradientTransform="matrix(1 0 0 -1 564 1315)">
		<stop  offset="0.0049" style="stop-color:#FFFFFF;stop-opacity:0"/>
		<stop  offset="1" style="stop-color:#FFFFFF;stop-opacity:0.2"/>
	</linearGradient>
	<polyline class="st21" points="764,571 764,1071 888,1071 888,482 	"/>
	
		<linearGradient id="SVGID_18_" gradientUnits="userSpaceOnUse" x1="52.292" y1="273.9932" x2="299.9276" y2="1016.6429" gradientTransform="matrix(1 0 0 -1 564 1315)">
		<stop  offset="0.0049" style="stop-color:#FFFFFF;stop-opacity:0"/>
		<stop  offset="1" style="stop-color:#FFFFFF;stop-opacity:0.2"/>
	</linearGradient>
	<polyline class="st8" points="667,338 667,1068 791,1068 791,249 	"/>
	
		<linearGradient id="SVGID_19_" gradientUnits="userSpaceOnUse" x1="-54.1196" y1="240.6743" x2="35.2083" y2="508.5654" gradientTransform="matrix(1 0 0 -1 564 1315)">
		<stop  offset="0.0049" style="stop-color:#FFFFFF;stop-opacity:0"/>
		<stop  offset="1" style="stop-color:#FFFFFF;stop-opacity:0.2"/>
	</linearGradient>
	<polyline class="st22" points="480,888 480,1068 604,1068 604,799 	"/>
	
		<linearGradient id="SVGID_20_" gradientUnits="userSpaceOnUse" x1="-21.729" y1="261.9063" x2="182.7318" y2="875.0767" gradientTransform="matrix(1 0 0 -1 564 1315)">
		<stop  offset="0.0049" style="stop-color:#FFFFFF;stop-opacity:0"/>
		<stop  offset="1" style="stop-color:#FFFFFF;stop-opacity:0.2"/>
	</linearGradient>
	<polyline class="st23" points="571,491 571,1071 695,1071 695,402 	"/>
	
		<linearGradient id="SVGID_21_" gradientUnits="userSpaceOnUse" x1="306.6929" y1="243.126" x2="421.9258" y2="588.7052" gradientTransform="matrix(1 0 0 -1 564 1315)">
		<stop  offset="0.0049" style="stop-color:#FFFFFF;stop-opacity:0"/>
		<stop  offset="1" style="stop-color:#FFFFFF;stop-opacity:0.2"/>
	</linearGradient>
	<polyline class="st24" points="854,801 854,1071 978,1071 978,712 	"/>
	
		<linearGradient id="SVGID_22_" gradientUnits="userSpaceOnUse" x1="644.9932" y1="466.0605" x2="826.4275" y2="1010.175" gradientTransform="matrix(1 0 0 -1 564 1315)">
		<stop  offset="0.0049" style="stop-color:#FFFFFF;stop-opacity:0"/>
		<stop  offset="1" style="stop-color:#FFFFFF;stop-opacity:0.2"/>
	</linearGradient>
	<polyline class="st25" points="1226,362 1226,862 1350,862 1350,273 	"/>
	
		<linearGradient id="SVGID_23_" gradientUnits="userSpaceOnUse" x1="514.292" y1="482.9927" x2="761.9281" y2="1225.6438" gradientTransform="matrix(1 0 0 -1 564 1315)">
		<stop  offset="0.0049" style="stop-color:#FFFFFF;stop-opacity:0"/>
		<stop  offset="1" style="stop-color:#FFFFFF;stop-opacity:0.2"/>
	</linearGradient>
	<polyline class="st3" points="1129,129 1129,859 1253,859 1253,40 	"/>
	
		<linearGradient id="SVGID_24_" gradientUnits="userSpaceOnUse" x1="407.8804" y1="449.6738" x2="497.2084" y2="717.5649" gradientTransform="matrix(1 0 0 -1 564 1315)">
		<stop  offset="0.0049" style="stop-color:#FFFFFF;stop-opacity:0"/>
		<stop  offset="1" style="stop-color:#FFFFFF;stop-opacity:0.2"/>
	</linearGradient>
	<polyline class="st26" points="942,679 942,859 1066,859 1066,590 	"/>
	
		<linearGradient id="SVGID_25_" gradientUnits="userSpaceOnUse" x1="442.271" y1="473.9063" x2="646.7321" y2="1087.0771" gradientTransform="matrix(1 0 0 -1 564 1315)">
		<stop  offset="0.0049" style="stop-color:#000000;stop-opacity:0"/>
		<stop  offset="1" style="stop-color:#000000;stop-opacity:0.2"/>
	</linearGradient>
	<polyline class="st6" points="1035,279 1035,859 1159,859 1159,190 	"/>
	
		<linearGradient id="SVGID_26_" gradientUnits="userSpaceOnUse" x1="767.6929" y1="453.126" x2="882.9258" y2="798.7052" gradientTransform="matrix(1 0 0 -1 564 1315)">
		<stop  offset="0.0049" style="stop-color:#FFFFFF;stop-opacity:0"/>
		<stop  offset="1" style="stop-color:#FFFFFF;stop-opacity:0.2"/>
	</linearGradient>
	<polyline class="st27" points="1315,591 1315,861 1439,861 1439,502 	"/>
	
		<linearGradient id="SVGID_27_" gradientUnits="userSpaceOnUse" x1="1097.9932" y1="269.0601" x2="1279.4275" y2="813.1746" gradientTransform="matrix(1 0 0 -1 564 1315)">
		<stop  offset="0.0049" style="stop-color:#FFFFFF;stop-opacity:0"/>
		<stop  offset="1" style="stop-color:#FFFFFF;stop-opacity:0.2"/>
	</linearGradient>
	<polyline class="st28" points="1679,559 1679,1059 1803,1059 1803,470 	"/>
	
		<linearGradient id="SVGID_28_" gradientUnits="userSpaceOnUse" x1="968.292" y1="282.9937" x2="1215.9277" y2="1025.6436" gradientTransform="matrix(1 0 0 -1 564 1315)">
		<stop  offset="0.0049" style="stop-color:#FFFFFF;stop-opacity:0"/>
		<stop  offset="1" style="stop-color:#FFFFFF;stop-opacity:0.2"/>
	</linearGradient>
	<polyline class="st4" points="1583,329 1583,1059 1707,1059 1707,240 	"/>
	
		<linearGradient id="SVGID_29_" gradientUnits="userSpaceOnUse" x1="861.8809" y1="247.6753" x2="951.2086" y2="515.5655" gradientTransform="matrix(1 0 0 -1 564 1315)">
		<stop  offset="0.0049" style="stop-color:#FFFFFF;stop-opacity:0"/>
		<stop  offset="1" style="stop-color:#FFFFFF;stop-opacity:0.2"/>
	</linearGradient>
	<polyline class="st29" points="1396,881 1396,1061 1520,1061 1520,792 	"/>
	
		<linearGradient id="SVGID_30_" gradientUnits="userSpaceOnUse" x1="896.2705" y1="271.9058" x2="1100.7317" y2="885.077" gradientTransform="matrix(1 0 0 -1 564 1315)">
		<stop  offset="0.0049" style="stop-color:#FFFFFF;stop-opacity:0"/>
		<stop  offset="1" style="stop-color:#FFFFFF;stop-opacity:0.2"/>
	</linearGradient>
	<polyline class="st5" points="1489,481 1489,1061 1613,1061 1613,392 	"/>
	
		<linearGradient id="SVGID_31_" gradientUnits="userSpaceOnUse" x1="1221.6934" y1="257.126" x2="1336.9263" y2="602.7052" gradientTransform="matrix(1 0 0 -1 564 1315)">
		<stop  offset="0.0049" style="stop-color:#FFFFFF;stop-opacity:0"/>
		<stop  offset="1" style="stop-color:#FFFFFF;stop-opacity:0.2"/>
	</linearGradient>
	<polyline class="st30" points="1769,787 1769,1057 1893,1057 1893,698 	"/>
	
		<linearGradient id="SVGID_32_" gradientUnits="userSpaceOnUse" x1="586.8804" y1="249.6743" x2="676.2088" y2="517.5667" gradientTransform="matrix(1 0 0 -1 564 1315)">
		<stop  offset="0.0049" style="stop-color:#FFFFFF;stop-opacity:0"/>
		<stop  offset="1" style="stop-color:#FFFFFF;stop-opacity:0.2"/>
	</linearGradient>
	<polyline class="st7" points="1121,879 1121,1059 1245,1059 1245,790 	"/>
	
		<linearGradient id="SVGID_33_" gradientUnits="userSpaceOnUse" x1="487.6934" y1="238.1255" x2="602.9263" y2="583.7047" gradientTransform="matrix(1 0 0 -1 564 1315)">
		<stop  offset="0.0049" style="stop-color:#FFFFFF;stop-opacity:0"/>
		<stop  offset="1" style="stop-color:#FFFFFF;stop-opacity:0.2"/>
	</linearGradient>
	<polyline class="st32" points="1035,806 1035,1076 1159,1076 1159,717 	"/>
</g>
</svg>
